<?xml version="1.0" encoding="UTF-8" standalone="no"?>
<!-- Created with Inkscape (http://www.inkscape.org/) -->
<svg
   xmlns:svg="http://www.w3.org/2000/svg"
   xmlns="http://www.w3.org/2000/svg"
   version="1.0"
   width="26.16"
   height="26.16"
   viewBox="0 0 22.156 22.156"
   id="Layer_1"
   xml:space="preserve"><defs
   id="defs2279">
	
	

	
	

	
	

	
	
</defs>

<path
   d="M 5.1875,4.6875 L 3.40625,6.46875 L 5.96875,9.0625 L 5.9375,20.75 L 10.59375,20.78125 L 10.59375,22.53125 L 12.34375,22.53125 L 12.375,19.03125 L 9.75,19 L 9.75,18.9375 L 7.71875,18.9375 L 7.75,7.25 L 5.1875,4.6875 z M 14.375,24.28125 L 10.5625,24.3125 L 10.5625,24.34375 L 4.4375,24.375 L 4.4375,26.125 L 20.125,26.09375 L 20.125,24.3125 L 14.375,24.34375 L 14.375,24.28125 z "
   transform="scale(0.8469419,0.8469419)"
   style="opacity:1;color:#000000;fill:#4c4d4f;fill-opacity:1;fill-rule:nonzero;stroke:none;stroke-width:3.21191764;stroke-linecap:butt;stroke-linejoin:miter;marker:none;marker-start:none;marker-mid:none;marker-end:none;stroke-miterlimit:3.5;stroke-dasharray:none;stroke-dashoffset:0;stroke-opacity:1;visibility:visible;display:inline;overflow:visible;enable-background:accumulate"
   id="path15162" /><path
   d="M 7.8923485,0.46274873 L 5.6161921,2.7389053 L 7.7864807,4.9356608 L 7.7600138,14.834294 L 11.703587,14.860761 L 11.67712,17.877992 L 6.4896009,17.904459 L 6.4896009,19.386607 L 19.776002,19.36014 L 19.776002,17.851525 L 14.906086,17.877992 L 14.932553,14.860761 L 18.479122,14.887228 L 18.479122,13.40508 L 10.98898,13.352146 L 10.98898,8.1116929 L 12.391727,9.514441 L 11.835922,10.070246 L 12.894599,11.15539 L 13.265136,10.758386 L 13.66214,12.1082 L 15.117822,11.684729 L 14.456148,9.593841 L 14.826685,9.196837 L 16.94404,9.858511 L 17.393978,8.4557631 L 16.017697,8.0058252 L 16.361767,7.688222 L 15.329557,6.6030777 L 14.667884,7.2382841 L 7.8923485,0.46274873 z "
   style="opacity:1;color:#000000;fill:#4c4d4f;fill-opacity:1;fill-rule:nonzero;stroke:none;stroke-width:3.21191764;stroke-linecap:butt;stroke-linejoin:miter;marker:none;marker-start:none;marker-mid:none;marker-end:none;stroke-miterlimit:3.5;stroke-dasharray:none;stroke-dashoffset:0;stroke-opacity:1;visibility:visible;display:inline;overflow:visible;enable-background:accumulate"
   id="path12089" /></svg>