<?xml version="1.0" encoding="UTF-8" standalone="no"?>
<!-- Created with Inkscape (http://www.inkscape.org/) -->
<svg
   xmlns:svg="http://www.w3.org/2000/svg"
   xmlns="http://www.w3.org/2000/svg"
   version="1.0"
   width="26.16"
   height="26.16"
   viewBox="0 0 22.156 22.156"
   id="Layer_1"
   xml:space="preserve"><defs
   id="defs2279">
	
	

	
	
</defs>

<path
   d="M 3.1495652,4.9493167 C 1.2920435,6.3802271 0.079400803,8.6048814 0.079400803,11.116112 C 0.079400873,15.410289 3.5916003,18.923858 7.8871464,18.923858 C 9.4967527,18.923857 11.00665,18.418862 12.254191,17.574044 L 12.280658,17.574044 L 16.753569,22.046956 L 18.315119,20.485407 L 13.842207,16.012495 L 13.81574,16.012495 C 12.568199,16.857313 11.058302,17.362309 9.4486956,17.362309 C 5.1531494,17.362309 1.64095,13.84874 1.6409499,9.5545633 C 1.6409499,7.8347084 2.1975272,6.243438 3.1495652,4.9493167 z "
   style="fill:#4c4d4f;fill-opacity:1;stroke:none;stroke-width:2.96429658;stroke-opacity:1"
   id="path3268" /><g
   transform="matrix(0.8469419,0,0,0.8469419,3.2152869,0.26536)"
   id="g2272">
	<path
   d="M 1.75,9.216 C 1.75,13.341 5.092,16.686 9.218,16.686 C 13.339,16.686 16.684,13.341 16.684,9.216 C 16.684,5.093 13.339,1.75 9.218,1.75 C 5.092,1.75 1.75,5.093 1.75,9.216 z "
   style="fill:none;stroke:#4c4d4f;stroke-width:3.5"
   id="path2274" />
	<line
   x1="14.498"
   y1="14.497"
   x2="20.917999"
   y2="20.919001"
   id="line2276"
   style="fill:none;stroke:#4c4d4f;stroke-width:3.5" />
</g></svg>