<?xml version="1.0" encoding="UTF-8" standalone="no"?>
<!-- Created with Inkscape (http://www.inkscape.org/) -->
<svg
   xmlns:svg="http://www.w3.org/2000/svg"
   xmlns="http://www.w3.org/2000/svg"
   version="1.0"
   width="26.16"
   height="26.16"
   viewBox="0 0 22.156 22.156"
   id="Layer_1"
   xml:space="preserve"><defs
   id="defs2279">
	
	

	
	

	
	

	
	
</defs>

<path
   d="M 7.0266785,1.328419 L 4.7505221,3.6045753 L 6.9208107,5.8013308 L 6.8943438,15.699964 L 10.837917,15.726431 L 10.81145,18.743662 L 5.6239309,18.770129 L 5.6239309,20.252277 L 18.910332,20.22581 L 18.910332,18.717195 L 14.040416,18.743662 L 14.066883,15.726431 L 17.613452,15.752898 L 17.613452,14.27075 L 10.12331,14.217816 L 10.12331,8.9773629 L 11.526057,10.380111 L 10.970252,10.935916 L 12.028929,12.02106 L 12.399466,11.624056 L 12.79647,12.97387 L 14.252152,12.550399 L 13.590478,10.459511 L 13.961015,10.062507 L 16.07837,10.724181 L 16.528308,9.3214331 L 15.152027,8.8714952 L 15.496097,8.553892 L 14.463887,7.4687477 L 13.802214,8.1039541 L 7.0266785,1.328419 z "
   style="opacity:1;color:#000000;fill:#4c4d4f;fill-opacity:1;fill-rule:nonzero;stroke:none;stroke-width:3.21191764;stroke-linecap:butt;stroke-linejoin:miter;marker:none;marker-start:none;marker-mid:none;marker-end:none;stroke-miterlimit:3.5;stroke-dasharray:none;stroke-dashoffset:0;stroke-opacity:1;visibility:visible;display:inline;overflow:visible;enable-background:accumulate"
   id="path12089" /></svg>