<?xml version="1.0" encoding="UTF-8" standalone="no"?>
<!-- Created with Inkscape (http://www.inkscape.org/) -->
<svg
   xmlns:svg="http://www.w3.org/2000/svg"
   xmlns="http://www.w3.org/2000/svg"
   version="1.0"
   width="50"
   height="50"
   viewBox="0 0 22.156 22.156"
   id="Layer_1"
   xml:space="preserve"><defs
   id="defs10">
	
	
</defs>

<rect
   width="22.200682"
   height="22.095465"
   x="0"
   y="0.060534492"
   style="fill:#ffffff;stroke:none;stroke-width:2;stroke-miterlimit:4;stroke-dasharray:none"
   id="rect2248" /><path
   d="M 0.0055416299,12.329746 L 0.02064163,14.020946 L 2.9953416,14.005846 L 2.9953416,12.329746 L 0.0055416299,12.329746 z "
   style="fill:#4c4d4f;fill-opacity:1;stroke:none;stroke-width:3.49429679;stroke-opacity:1"
   id="line7" /><path
   d="M 3.65625,12.3125 L 3.65625,14.03125 L 7.59375,14 L 7.59375,12.3125 L 3.65625,12.3125 z "
   style="fill:#666666;fill-opacity:1;stroke:none;stroke-width:1.69120002;stroke-opacity:1"
   id="path2172" /><path
   d="M 22.216364,12.329746 L 8.1897414,12.344846 L 8.1897414,14.020946 L 22.300356,14.005846 L 22.216364,12.329746 z "
   style="fill:#4c4d4f;fill-opacity:1;stroke:none;stroke-width:3.49009848;stroke-opacity:1"
   id="path2174" /><path
   d="M 14.794532,8.807116 L 14.796954,10.495748 L 18.668818,10.485198 L 18.666395,8.796566 L 14.794532,8.807116 z "
   style="fill:#b3b3b3;fill-opacity:1;stroke:none;stroke-width:3.5;stroke-opacity:1"
   id="path2175" /><path
   d="M 18.111342,5.428598 L 14.170241,5.443698 L 14.170241,7.134898 L 18.111342,7.119798 L 18.111342,5.428598 z "
   style="fill:#b3b3b3;fill-opacity:1;stroke:none;stroke-width:3.5;stroke-opacity:1"
   id="path2177" /><path
   d="M 0.005542,7.465571 L 0.07697,9.156771 L 14.148291,9.141671 L 14.148291,7.465571 L 0.005542,7.465571 z "
   style="fill:#4c4d4f;fill-opacity:1;stroke:none;stroke-width:3.49429679;stroke-opacity:1"
   id="path2179" /><path
   d="M 14.98468,9.206731 L 14.60718,10.852629 L 18.38218,11.713329 L 18.75968,10.067429 L 14.98468,9.206731 z "
   style="fill:#666666;fill-opacity:1;stroke:none;stroke-width:3.5;stroke-opacity:1"
   id="path2181" /><path
   d="M 14.809913,7.000189 L 18.756337,6.991526"
   style="fill:none;stroke:#4c4d4f;stroke-width:1.69120002"
   id="path2183" /><path
   d="M 22.178161,7.465571 L 19.342691,7.480671 L 19.342691,9.156771 L 22.195141,9.141671 L 22.178161,7.465571 z "
   style="fill:#4c4d4f;fill-opacity:1;stroke:none;stroke-width:3.49009848;stroke-opacity:1"
   id="path2185" /><path
   d="M 0.0055418839,17.262815 L 0.085472254,18.954014 L 15.831755,18.938914 L 15.831755,17.262815 L 0.0055418839,17.262815 z "
   style="fill:#4c4d4f;fill-opacity:1;stroke:none;stroke-width:3.49429679;stroke-opacity:1"
   id="path2191" /><path
   d="M 22.182544,2.603519 L 2.5080503,2.618619 L 2.5080503,4.294719 L 22.300356,4.279619 L 22.182544,2.603519 z "
   style="fill:#4c4d4f;fill-opacity:1;stroke:none;stroke-width:3.49009848;stroke-opacity:1"
   id="path2199" /></svg>