<?xml version="1.0" encoding="UTF-8" standalone="no"?>
<!-- Created with Inkscape (http://www.inkscape.org/) -->
<svg
   xmlns:svg="http://www.w3.org/2000/svg"
   xmlns="http://www.w3.org/2000/svg"
   version="1.0"
   width="26.16"
   height="26.16"
   viewBox="0 0 22.156 22.156"
   id="Layer_1"
   xml:space="preserve"><defs
   id="defs2279">
	
	

	
	
</defs>

<path
   d="M 3.9375,3.21875 L 3.9375,4.09375 L 4,5.6875 L 0.96875,5.6875 L 0.125,5.6875 L 0.125,6.53125 L 0.125,18.3125 L 0.125,19.15625 L 0.96875,19.15625 L 5.8125,19.15625 C 5.2625463,18.632963 4.7721311,18.035716 4.34375,17.40625 L 1.8125,17.40625 L 1.8125,7.40625 L 3.34375,7.40625 C 4.0538674,5.7487554 5.1865435,4.3136428 6.59375,3.21875 L 4.84375,3.21875 L 3.9375,3.21875 z M 19.4375,3.21875 C 20.082213,3.720254 20.673859,4.3027456 21.1875,4.9375 L 24.34375,4.9375 L 24.34375,17.40625 L 22.84375,17.40625 L 24.59375,19.15625 L 25.25,19.15625 L 26.09375,19.15625 L 26.09375,18.3125 L 26.09375,4.09375 L 26.09375,3.21875 L 25.25,3.21875 L 19.4375,3.21875 z "
   transform="scale(0.8469419,0.8469419)"
   style="fill:#4d4d4d;fill-opacity:1;stroke:none;stroke-width:1.46495032;stroke-miterlimit:4;stroke-dasharray:none;stroke-opacity:1"
   id="rect3335" /><g
   transform="matrix(0.8469419,0,0,0.8469419,3.215287,1.9592438)"
   id="g2272">
	<path
   d="M 1.75,9.216 C 1.75,13.341 5.092,16.686 9.218,16.686 C 13.339,16.686 16.684,13.341 16.684,9.216 C 16.684,5.093 13.339,1.75 9.218,1.75 C 5.092,1.75 1.75,5.093 1.75,9.216 z "
   style="fill:none;stroke:#4c4d4f;stroke-width:3.5"
   id="path10123" />
	<line
   x1="14.498"
   y1="14.497"
   x2="20.917999"
   y2="20.919001"
   id="line10125"
   style="fill:none;stroke:#4c4d4f;stroke-width:3.5" />
</g></svg>