<?xml version="1.0" encoding="UTF-8" standalone="no"?>
<svg
   xmlns:dc="http://purl.org/dc/elements/1.1/"
   xmlns:cc="http://creativecommons.org/ns#"
   xmlns:rdf="http://www.w3.org/1999/02/22-rdf-syntax-ns#"
   xmlns:svg="http://www.w3.org/2000/svg"
   xmlns="http://www.w3.org/2000/svg"
   xmlns:sodipodi="http://sodipodi.sourceforge.net/DTD/sodipodi-0.dtd"
   xmlns:inkscape="http://www.inkscape.org/namespaces/inkscape"
   enable-background="new 0 0 55 55"
   height="55px"
   id="Layer_1"
   version="1.1"
   viewBox="0 0 55 55"
   width="55px"
   x="0px"
   xml:space="preserve"
   y="0px"
   inkscape:version="0.48.4 r9939"
   sodipodi:docname="activity-log.svg"><metadata
     id="metadata3077"><rdf:RDF><cc:Work
         rdf:about=""><dc:format>image/svg+xml</dc:format><dc:type
           rdf:resource="http://purl.org/dc/dcmitype/StillImage" /><dc:title></dc:title></cc:Work></rdf:RDF></metadata><defs
     id="defs3075" /><sodipodi:namedview
     pagecolor="#ffffff"
     bordercolor="#666666"
     borderopacity="1"
     objecttolerance="10"
     gridtolerance="10"
     guidetolerance="10"
     inkscape:pageopacity="0"
     inkscape:pageshadow="2"
     inkscape:window-width="1156"
     inkscape:window-height="780"
     id="namedview3073"
     showgrid="false"
     inkscape:zoom="11.945455"
     inkscape:cx="22.112505"
     inkscape:cy="27.5"
     inkscape:window-x="0"
     inkscape:window-y="0"
     inkscape:window-maximized="0"
     inkscape:current-layer="Layer_1" /><circle
     cx="12.926"
     cy="16.867001"
     r="1.931"
     id="circle3061"
     d="m 14.857,16.867001 c 0,1.066461 -0.864539,1.931 -1.931,1.931 -1.066462,0 -1.931,-0.864539 -1.931,-1.931 0,-1.066462 0.864538,-1.931 1.931,-1.931 1.066461,0 1.931,0.864538 1.931,1.931 z"
     sodipodi:cx="12.926"
     sodipodi:cy="16.867001"
     sodipodi:rx="1.931"
     sodipodi:ry="1.931"
     style="fill:#ffffff;fill-opacity:1" /><circle
     cx="12.926"
     cy="25.645"
     r="1.931"
     id="circle3063"
     d="m 14.857,25.645 c 0,1.066462 -0.864539,1.931 -1.931,1.931 -1.066462,0 -1.931,-0.864538 -1.931,-1.931 0,-1.066461 0.864538,-1.931 1.931,-1.931 1.066461,0 1.931,0.864539 1.931,1.931 z"
     sodipodi:cx="12.926"
     sodipodi:cy="25.645"
     sodipodi:rx="1.931"
     sodipodi:ry="1.931"
     style="fill:#ffffff;fill-opacity:1" /><circle
     cx="12.926"
     cy="34.424"
     r="1.931"
     id="circle3065"
     d="m 14.857,34.424 c 0,1.066462 -0.864539,1.931 -1.931,1.931 -1.066462,0 -1.931,-0.864538 -1.931,-1.931 0,-1.066462 0.864538,-1.931 1.931,-1.931 1.066461,0 1.931,0.864538 1.931,1.931 z"
     sodipodi:cx="12.926"
     sodipodi:cy="34.424"
     sodipodi:rx="1.931"
     sodipodi:ry="1.931"
     style="fill:#ffffff;fill-opacity:1" /><line
     x1="18.326918"
     x2="43.654457"
     y1="16.867001"
     y2="16.867001"
     id="line3067"
     style="fill:none;stroke:#ffffff;stroke-width:4.30183506000000015;stroke-opacity:1" /><line
     x1="18.326918"
     x2="43.654457"
     y1="25.645"
     y2="25.645"
     id="line3069"
     style="fill:none;stroke:#ffffff;stroke-width:4.30183506000000015;stroke-opacity:1" /><line
     x1="18.326918"
     x2="43.654457"
     y1="34.424"
     y2="34.424"
     id="line3071"
     style="fill:none;stroke:#ffffff;stroke-width:4.30183506000000015;stroke-opacity:1" /></svg>