<?xml version="1.0" encoding="UTF-8" standalone="no"?>
<!-- Created with Inkscape (http://www.inkscape.org/) -->
<svg
   xmlns:svg="http://www.w3.org/2000/svg"
   xmlns="http://www.w3.org/2000/svg"
   version="1.0"
   width="26.16"
   height="26.16"
   viewBox="0 0 22.156 22.156"
   id="Layer_1"
   xml:space="preserve"><defs
   id="defs2279">
	
	

	
	

	
	

	
	
</defs>

<path
   d="M 5.2662047,3.0888925 L 2.9900483,5.3650491 L 5.1603369,7.5618046 L 5.13387,17.460438 L 9.077443,17.486905 L 9.0509762,20.504136 L 3.8634571,20.530603 L 3.8634571,22.012751 L 17.149858,21.986284 L 17.149858,20.477669 L 12.279942,20.504136 L 12.306409,17.486905 L 15.852978,17.513372 L 15.852978,16.031224 L 8.3628362,15.97829 L 8.3628362,10.737837 L 9.765583,12.140585 L 9.209778,12.69639 L 10.268455,13.781534 L 10.638992,13.38453 L 11.035996,14.734344 L 12.491678,14.310873 L 11.830004,12.219985 L 12.200541,11.822981 L 14.317896,12.484655 L 14.767834,11.081907 L 13.391553,10.631969 L 13.735623,10.314366 L 12.703413,9.2292215 L 12.04174,9.8644282 L 5.2662047,3.0888925 z "
   style="opacity:1;color:#000000;fill:#4c4d4f;fill-opacity:1;fill-rule:nonzero;stroke:none;stroke-width:3.21191764;stroke-linecap:butt;stroke-linejoin:miter;marker:none;marker-start:none;marker-mid:none;marker-end:none;stroke-miterlimit:3.5;stroke-dasharray:none;stroke-dashoffset:0;stroke-opacity:1;visibility:visible;display:inline;overflow:visible;enable-background:accumulate"
   id="path15162" /><path
   d="M 6.7311847,1.6239125 L 4.4550283,3.9000691 L 6.6253169,6.0968246 L 6.59885,15.995458 L 10.542423,16.021925 L 10.515956,19.039156 L 5.3284371,19.065623 L 5.3284371,20.547771 L 18.614838,20.521304 L 18.614838,19.012689 L 17.317958,14.566244 L 16.232814,9.616927 L 6.7311847,1.6239125 z "
   style="opacity:1;color:#000000;fill:#ffffff;fill-opacity:1;fill-rule:nonzero;stroke:none;stroke-width:3.21191764;stroke-linecap:butt;stroke-linejoin:miter;marker:none;marker-start:none;marker-mid:none;marker-end:none;stroke-miterlimit:3.5;stroke-dasharray:none;stroke-dashoffset:0;stroke-opacity:1;visibility:visible;display:inline;overflow:visible;enable-background:accumulate"
   id="path15164" /><path
   d="M 7.8923485,0.46274873 L 5.6161921,2.7389053 L 7.7864807,4.9356608 L 7.7600138,14.834294 L 11.703587,14.860761 L 11.67712,17.877992 L 6.4896009,17.904459 L 6.4896009,19.386607 L 19.776002,19.36014 L 19.776002,17.851525 L 14.906086,17.877992 L 14.932553,14.860761 L 18.479122,14.887228 L 18.479122,13.40508 L 10.98898,13.352146 L 10.98898,8.1116929 L 12.391727,9.514441 L 11.835922,10.070246 L 12.894599,11.15539 L 13.265136,10.758386 L 13.66214,12.1082 L 15.117822,11.684729 L 14.456148,9.593841 L 14.826685,9.196837 L 16.94404,9.858511 L 17.393978,8.4557631 L 16.017697,8.0058252 L 16.361767,7.688222 L 15.329557,6.6030777 L 14.667884,7.2382841 L 7.8923485,0.46274873 z "
   style="opacity:1;color:#000000;fill:#4c4d4f;fill-opacity:1;fill-rule:nonzero;stroke:none;stroke-width:3.21191764;stroke-linecap:butt;stroke-linejoin:miter;marker:none;marker-start:none;marker-mid:none;marker-end:none;stroke-miterlimit:3.5;stroke-dasharray:none;stroke-dashoffset:0;stroke-opacity:1;visibility:visible;display:inline;overflow:visible;enable-background:accumulate"
   id="path12089" /></svg>