<?xml version="1.0" encoding="UTF-8" standalone="no"?>
<!-- Created with Inkscape (http://www.inkscape.org/) -->
<svg
   xmlns:svg="http://www.w3.org/2000/svg"
   xmlns="http://www.w3.org/2000/svg"
   version="1.0"
   width="50"
   height="50"
   viewBox="0 0 22.156 22.156"
   id="Layer_1"
   xml:space="preserve"><defs
   id="defs10">
	
	
</defs>

<rect
   width="22.156"
   height="22.156"
   x="0"
   y="4.0367015e-15"
   style="fill:#ffffff;stroke:none;stroke-width:2;stroke-miterlimit:4;stroke-dasharray:none"
   id="rect2176" /><path
   d="M 3.6415829,13.468171 L 3.6440051,15.156805 L 7.5158684,15.146255 L 7.5134464,13.457621 L 3.6415829,13.468171 z "
   style="fill:#b3b3b3;fill-opacity:1;stroke:none;stroke-width:3.5;stroke-opacity:1"
   id="path5302" /><path
   d="M 6.9583924,10.089654 L 3.0172913,10.104754 L 3.0172913,11.795953 L 6.9583924,11.780853 L 6.9583924,10.089654 z "
   style="fill:#b3b3b3;fill-opacity:1;stroke:none;stroke-width:3.5;stroke-opacity:1"
   id="path5294" /><path
   d="M 0.0055416299,12.126626 L 0.02064163,13.817826 L 2.9953416,13.802726 L 2.9953416,12.126626 L 0.0055416299,12.126626 z "
   style="fill:#4c4d4f;fill-opacity:1;stroke:none;stroke-width:3.49429679;stroke-opacity:1"
   id="line7" /><path
   d="M 3.8317306,13.867786 L 3.4542306,15.513686 L 7.2292304,16.374386 L 7.6067304,14.728486 L 3.8317306,13.867786 z "
   style="fill:#666666;fill-opacity:1;stroke:none;stroke-width:3.5;stroke-opacity:1"
   id="path2170" /><path
   d="M 3.6569642,11.661244 L 7.6033874,11.652581"
   style="fill:none;stroke:#4c4d4f;stroke-width:1.69120002"
   id="path2172" /><path
   d="M 22.216364,12.126626 L 8.1897414,12.141726 L 8.1897414,13.817826 L 22.300356,13.802726 L 22.216364,12.126626 z "
   style="fill:#4c4d4f;fill-opacity:1;stroke:none;stroke-width:3.49009848;stroke-opacity:1"
   id="path2174" /><path
   d="M 14.794532,8.7924836 L 14.796954,10.48112 L 18.668818,10.47057 L 18.666395,8.7819336 L 14.794532,8.7924836 z "
   style="fill:#b3b3b3;fill-opacity:1;stroke:none;stroke-width:3.5;stroke-opacity:1"
   id="path2175" /><path
   d="M 18.111342,5.4139656 L 14.170241,5.4290656 L 14.170241,7.1202656 L 18.111342,7.1051656 L 18.111342,5.4139656 z "
   style="fill:#b3b3b3;fill-opacity:1;stroke:none;stroke-width:3.5;stroke-opacity:1"
   id="path2177" /><path
   d="M 0.005542,7.4509386 L 0.07697,9.1421386 L 14.148291,9.1270386 L 14.148291,7.4509386 L 0.005542,7.4509386 z "
   style="fill:#4c4d4f;fill-opacity:1;stroke:none;stroke-width:3.49429679;stroke-opacity:1"
   id="path2179" /><path
   d="M 14.98468,9.1920986 L 14.60718,10.838001 L 18.38218,11.698701 L 18.75968,10.052801 L 14.98468,9.1920986 z "
   style="fill:#666666;fill-opacity:1;stroke:none;stroke-width:3.5;stroke-opacity:1"
   id="path2181" /><path
   d="M 14.809913,6.9855566 L 18.756337,6.9768936"
   style="fill:none;stroke:#4c4d4f;stroke-width:1.69120002"
   id="path2183" /><path
   d="M 22.178161,7.4509386 L 19.342691,7.4660386 L 19.342691,9.1421386 L 22.195141,9.1270386 L 22.178161,7.4509386 z "
   style="fill:#4c4d4f;fill-opacity:1;stroke:none;stroke-width:3.49009848;stroke-opacity:1"
   id="path2185" /><path
   d="M 8.691975,18.604359 L 8.694397,20.292993 L 12.566261,20.282444 L 12.563838,18.593809 L 8.691975,18.604359 z "
   style="fill:#b3b3b3;fill-opacity:1;stroke:none;stroke-width:3.5;stroke-opacity:1"
   id="path2187" /><path
   d="M 12.008785,15.225841 L 8.067683,15.240941 L 8.067683,16.932141 L 12.008785,16.917041 L 12.008785,15.225841 z "
   style="fill:#b3b3b3;fill-opacity:1;stroke:none;stroke-width:3.5;stroke-opacity:1"
   id="path2189" /><path
   d="M 0.0055418839,17.262815 L 0.046148915,18.954014 L 8.045734,18.938914 L 8.045734,17.262815 L 0.0055418839,17.262815 z "
   style="fill:#4c4d4f;fill-opacity:1;stroke:none;stroke-width:3.49429679;stroke-opacity:1"
   id="path2191" /><path
   d="M 8.882123,19.003974 L 8.504623,20.649874 L 12.279623,21.510574 L 12.657123,19.864674 L 8.882123,19.003974 z "
   style="fill:#666666;fill-opacity:1;stroke:none;stroke-width:3.5;stroke-opacity:1"
   id="path2193" /><path
   d="M 8.707356,16.797433 L 12.65378,16.788769"
   style="fill:none;stroke:#4c4d4f;stroke-width:1.69120002"
   id="path2195" /><path
   d="M 15.761834,17.262815 L 13.240134,17.277915 L 13.240134,18.954014 L 15.776934,18.938914 L 15.761834,17.262815 z "
   style="fill:#4c4d4f;fill-opacity:1;stroke:none;stroke-width:3.49009848;stroke-opacity:1"
   id="path2197" /><path
   d="M 22.182544,2.603519 L 2.5080503,2.618619 L 2.5080503,4.294719 L 22.300356,4.279619 L 22.182544,2.603519 z "
   style="fill:#4c4d4f;fill-opacity:1;stroke:none;stroke-width:3.49009848;stroke-opacity:1"
   id="path2199" /></svg>