<?xml version="1.0" encoding="UTF-8" standalone="no"?>
<!-- Created with Inkscape (http://www.inkscape.org/) -->
<svg
   xmlns:svg="http://www.w3.org/2000/svg"
   xmlns="http://www.w3.org/2000/svg"
   version="1.0"
   width="26.16"
   height="26.16"
   viewBox="0 0 22.156 22.156"
   id="Layer_1"
   xml:space="preserve"><defs
   id="defs2279">
	
	

	
	

	
	

	
	
</defs>

<path
   d="M 13.65625,4.15625 L 15.375,5.875 L 24.28125,5.875 L 24.28125,18.375 L 22.78125,18.375 L 22.78125,18.59375 C 22.780041,19.172699 22.505733,19.726161 22.0625,20.09375 L 25.15625,20.09375 L 26,20.09375 L 26,19.21875 L 26,5.03125 L 26,4.15625 L 25.15625,4.15625 L 13.65625,4.15625 z M 4.03125,5.40625 L 4.0625,6.65625 L 1.03125,6.65625 L 0.1875,6.65625 L 0.1875,7.5 L 0.1875,19.21875 L 0.1875,20.09375 L 1.03125,20.09375 L 7.0625,20.09375 C 6.5370926,19.738735 6.1944135,19.173987 6.1875,18.53125 L 6.1875,18.375 L 1.875,18.375 L 1.875,8.34375 L 4.90625,8.375 L 5.78125,8.375 L 5.75,7.5 L 5.75,7.21875 L 4.21875,5.625 C 4.152563,5.5559901 4.0852746,5.4818513 4.03125,5.40625 z "
   transform="scale(0.8469419,0.8469419)"
   style="fill:#4d4d4d;fill-opacity:1;stroke:none;stroke-width:1.46061444;stroke-miterlimit:4;stroke-dasharray:none;stroke-opacity:1"
   id="rect3335" /><path
   d="M 7.0266785,1.328419 L 4.7505221,3.6045753 L 6.9208107,5.8013308 L 6.8943438,15.699964 L 10.837917,15.726431 L 10.81145,18.743662 L 5.6239309,18.770129 L 5.6239309,20.252277 L 18.910332,20.22581 L 18.910332,18.717195 L 14.040416,18.743662 L 14.066883,15.726431 L 17.613452,15.752898 L 17.613452,14.27075 L 10.12331,14.217816 L 10.12331,8.9773629 L 11.526057,10.380111 L 10.970252,10.935916 L 12.028929,12.02106 L 12.399466,11.624056 L 12.79647,12.97387 L 14.252152,12.550399 L 13.590478,10.459511 L 13.961015,10.062507 L 16.07837,10.724181 L 16.528308,9.3214331 L 15.152027,8.8714952 L 15.496097,8.553892 L 14.463887,7.4687477 L 13.802214,8.1039541 L 7.0266785,1.328419 z "
   style="opacity:1;color:#000000;fill:#4c4d4f;fill-opacity:1;fill-rule:nonzero;stroke:none;stroke-width:3.21191764;stroke-linecap:butt;stroke-linejoin:miter;marker:none;marker-start:none;marker-mid:none;marker-end:none;stroke-miterlimit:3.5;stroke-dasharray:none;stroke-dashoffset:0;stroke-opacity:1;visibility:visible;display:inline;overflow:visible;enable-background:accumulate"
   id="path12089" /></svg>