<?xml version="1.0" encoding="UTF-8" standalone="no"?>
<!-- Generator: Adobe Illustrator 13.0.2, SVG Export Plug-In . SVG Version: 6.00 Build 14948)  -->
<svg
   xmlns:dc="http://purl.org/dc/elements/1.1/"
   xmlns:cc="http://web.resource.org/cc/"
   xmlns:rdf="http://www.w3.org/1999/02/22-rdf-syntax-ns#"
   xmlns:svg="http://www.w3.org/2000/svg"
   xmlns="http://www.w3.org/2000/svg"
   xmlns:sodipodi="http://sodipodi.sourceforge.net/DTD/sodipodi-0.dtd"
   xmlns:inkscape="http://www.inkscape.org/namespaces/inkscape"
   version="1.0"
   id="Layer_1"
   x="0px"
   y="0px"
   width="26.16"
   height="26.16"
   viewBox="0 0 22.156 22.156"
   enable-background="new 0 0 22.156 22.156"
   xml:space="preserve"
   sodipodi:version="0.32"
   inkscape:version="0.45.1"
   sodipodi:docname="regex-in-selection.svg"
   sodipodi:docbase="/home/chema/develop/develop-activity/icons"
   inkscape:output_extension="org.inkscape.output.svg.inkscape"><metadata
   id="metadata2281"><rdf:RDF><cc:Work
       rdf:about=""><dc:format>image/svg+xml</dc:format><dc:type
         rdf:resource="http://purl.org/dc/dcmitype/StillImage" /></cc:Work></rdf:RDF></metadata><defs
   id="defs2279">
	
	

	
	

	
	

	
	
</defs><sodipodi:namedview
   inkscape:window-height="666"
   inkscape:window-width="910"
   inkscape:pageshadow="2"
   inkscape:pageopacity="0.0"
   guidetolerance="10.0"
   gridtolerance="10.0"
   objecttolerance="10.0"
   borderopacity="1.0"
   bordercolor="#666666"
   pagecolor="#ffffff"
   id="base"
   showguides="true"
   inkscape:guide-bbox="true"
   width="26.16px"
   height="26.16px"
   inkscape:zoom="12.71875"
   inkscape:cx="7.8353259"
   inkscape:cy="15.493348"
   inkscape:window-x="0"
   inkscape:window-y="25"
   inkscape:current-layer="Layer_1" />

<path
   style="fill:#ffffff;stroke:#4d4d4d;stroke-width:1.46061444;stroke-miterlimit:4;stroke-dasharray:none;stroke-opacity:1"
   d="M 4.1593009,6.349935 L 4.1316081,4.2527582 L 21.299333,4.2527582 L 21.299333,16.286604 L 0.87514578,16.286604 L 0.87514578,6.3421652 L 4.1593009,6.349935 z "
   id="rect3335"
   sodipodi:nodetypes="ccccccc" /><path
   sodipodi:type="inkscape:offset"
   inkscape:radius="1.6473463"
   inkscape:original="M 7.03125 0.78125 L 4.75 3.0625 L 6.90625 5.28125 L 6.90625 15.15625 L 10.84375 15.1875 L 10.8125 18.21875 L 5.625 18.25 L 5.625 19.71875 L 18.90625 19.6875 L 18.90625 18.1875 L 14.03125 18.21875 L 14.0625 15.1875 L 17.625 15.21875 L 17.625 13.75 L 10.125 13.6875 L 10.125 8.4375 L 11.53125 9.84375 L 10.96875 10.40625 L 12.03125 11.5 L 12.40625 11.09375 L 12.78125 12.4375 L 14.25 12.03125 L 13.59375 9.9375 L 13.96875 9.53125 L 16.09375 10.1875 L 16.53125 8.78125 L 15.15625 8.34375 L 15.5 8.03125 L 14.46875 6.9375 L 13.8125 7.5625 L 7.03125 0.78125 z "
   style="fill:#ffffff;fill-opacity:1;stroke:none;stroke-width:3.21191764;stroke-miterlimit:3.5;stroke-opacity:1"
   id="path15137"
   d="M 7,-0.875 C 6.5744784,-0.85996908 6.1713003,-0.68077881 5.875,-0.375 L 3.59375,1.90625 C 2.9531448,2.5390258 2.9392277,3.5688948 3.5625,4.21875 L 5.25,5.96875 L 5.25,15.15625 C 5.2564886,15.759476 5.5921492,16.310918 6.125,16.59375 L 5.625,16.59375 C 5.185022,16.59141 4.7623873,16.765156 4.4512715,17.076271 C 4.1401557,17.387387 3.9664099,17.810022 3.96875,18.25 L 3.96875,19.71875 C 3.9664099,20.158728 4.1401557,20.581363 4.4512715,20.892479 C 4.7623873,21.203594 5.185022,21.37734 5.625,21.375 L 18.90625,21.34375 C 19.346228,21.34609 19.768863,21.172344 20.079979,20.861229 C 20.391094,20.550113 20.56484,20.127478 20.5625,19.6875 L 20.5625,18.1875 C 20.56484,17.747522 20.391094,17.324887 20.079979,17.013771 C 19.768863,16.702656 19.346228,16.52891 18.90625,16.53125 L 18.625,16.53125 C 19.037268,16.220701 19.280172,15.734894 19.28125,15.21875 L 19.28125,13.75 C 19.28359,13.310022 19.109844,12.887387 18.798729,12.576271 C 18.487613,12.265156 18.064978,12.09141 17.625,12.09375 L 15.90625,12.09375 C 15.903919,11.999277 15.893464,11.90518 15.875,11.8125 C 16.662269,11.915725 17.411168,11.442737 17.65625,10.6875 L 18.09375,9.28125 C 18.365778,8.4186517 17.891524,7.4980413 17.03125,7.21875 L 16.875,7.1875 L 16.875,7.15625 C 16.820562,7.067164 16.75778,6.9834542 16.6875,6.90625 L 15.65625,5.8125 C 15.217404,5.3444249 14.54673,5.173708 13.9375,5.375 L 8.1875,-0.375 C 7.8759539,-0.69595889 7.4472958,-0.87644653 7,-0.875 L 7,-0.875 z "
   transform="translate(0,0.5327201)" /><path
   style="opacity:1;color:#000000;fill:#4c4d4f;fill-opacity:1;fill-rule:nonzero;stroke:none;stroke-width:3.21191764;stroke-linecap:butt;stroke-linejoin:miter;marker:none;marker-start:none;marker-mid:none;marker-end:none;stroke-miterlimit:3.5;stroke-dasharray:none;stroke-dashoffset:0;stroke-opacity:1;visibility:visible;display:inline;overflow:visible;enable-background:accumulate"
   d="M 7.0266785,1.328419 L 4.7505221,3.6045753 L 6.9208107,5.8013308 L 6.8943438,15.699964 L 10.837917,15.726431 L 10.81145,18.743662 L 5.6239309,18.770129 L 5.6239309,20.252277 L 18.910332,20.22581 L 18.910332,18.717195 L 14.040416,18.743662 L 14.066883,15.726431 L 17.613452,15.752898 L 17.613452,14.27075 L 10.12331,14.217816 L 10.12331,8.9773629 L 11.526057,10.380111 L 10.970252,10.935916 L 12.028929,12.02106 L 12.399466,11.624056 L 12.79647,12.97387 L 14.252152,12.550399 L 13.590478,10.459511 L 13.961015,10.062507 L 16.07837,10.724181 L 16.528308,9.3214331 L 15.152027,8.8714952 L 15.496097,8.553892 L 14.463887,7.4687477 L 13.802214,8.1039541 L 7.0266785,1.328419 z "
   id="path12089"
   sodipodi:nodetypes="ccccccccccccccccccccccccccccccc" /></svg>