<?xml version="1.0" encoding="UTF-8" standalone="no"?>
<!-- Created with Inkscape (http://www.inkscape.org/) -->

<svg
   xmlns:dc="http://purl.org/dc/elements/1.1/"
   xmlns:cc="http://creativecommons.org/ns#"
   xmlns:rdf="http://www.w3.org/1999/02/22-rdf-syntax-ns#"
   xmlns:svg="http://www.w3.org/2000/svg"
   xmlns="http://www.w3.org/2000/svg"
   version="1.1"
   width="55"
   height="55"
   viewBox="0 0 55 55"
   id="svg2"
   xml:space="preserve"><metadata
     id="metadata25"><rdf:RDF><cc:Work
         rdf:about=""><dc:format>image/svg+xml</dc:format><dc:type
           rdf:resource="http://purl.org/dc/dcmitype/StillImage" /><dc:title></dc:title></cc:Work></rdf:RDF></metadata><defs
     id="defs33">
	
	
	

  
  

  
   
   
   
   

	

		
		
		
		
		
		
		
		
		
	</defs><g
     transform="matrix(0.55205508,0,0,0.55205508,77.118464,18.235971)"
     id="g4382"><g
       transform="translate(-80.093659,12.220029)"
       id="g4308"
       style="fill:none;stroke:#ffffff;stroke-opacity:1">
			<g
   id="g4310"
   style="fill:none;stroke:#ffffff;stroke-opacity:1">
				<path
   d="m 6.736,49.002 h 24.52 c 2.225,0 3.439,-1.447 3.439,-3.441 v -27.28 c 0,-1.73 -1.732,-3.441 -3.439,-3.441 h -4.389"
   id="path4312"
   style="fill:none;stroke:#ffffff;stroke-width:3.5;stroke-linecap:round;stroke-linejoin:round;stroke-opacity:1" />
			</g>
		</g><g
       transform="translate(-80.093659,12.220029)"
       id="g4314"
       style="fill:none;stroke:#ffffff;stroke-opacity:1">
			<g
   id="g4316"
   style="fill:none;stroke:#ffffff;stroke-opacity:1">
				<path
   d="m 26.867,38.592 c 0,1.836 -1.345,3.201 -3.441,4.047 L 6.736,49.002 V 14.84 l 16.69,-8.599 c 2.228,-0.394 3.441,0.84 3.441,2.834 v 29.517 z"
   id="path4318"
   style="fill:none;stroke:#ffffff;stroke-width:3.5;stroke-linecap:round;stroke-linejoin:round;stroke-opacity:1" />
			</g>
		</g><path
       d="m -70.669659,54.827029 c 0,0 -1.351,-0.543 -2.702,-0.543 -1.351,0 -2.703,0.543 -2.703,0.543"
       id="path4320"
       style="fill:none;stroke:#ffffff;stroke-width:2.25;stroke-linecap:round;stroke-linejoin:round;stroke-opacity:1" /><path
       d="m -70.669659,44.226029 c 0,0 -1.239,-0.543 -2.815,-0.543 -1.577,0 -2.59,0.543 -2.59,0.543"
       id="path4322"
       style="fill:none;stroke:#ffffff;stroke-width:2.25;stroke-linecap:round;stroke-linejoin:round;stroke-opacity:1" /><path
       d="m -70.669659,33.898029 c 0,0 -1.125,-0.544 -2.927,-0.544 -1.802,0 -2.478,0.544 -2.478,0.544"
       id="path4324"
       style="fill:none;stroke:#ffffff;stroke-width:2.25;stroke-linecap:round;stroke-linejoin:round;stroke-opacity:1" /><line
       style="fill:none;stroke:#ffffff;stroke-width:2.25;stroke-linecap:round;stroke-linejoin:round;stroke-opacity:1"
       x1="-66.884659"
       x2="-66.884659"
       y1="58.753029"
       y2="23.725029"
       id="line4326" /></g><g
     transform="matrix(1,0,0,-1,-24.850339,47.707501)"
     id="g4770"><g
       transform="translate(34.0803,-1006.42)"
       id="g4772"><polyline
         transform="matrix(-0.469241,0.469241,-0.469241,-0.469241,66.2906,1019.03)"
         style="fill:none;stroke:#ffffff;stroke-width:3.5;stroke-linecap:round;stroke-linejoin:round"
         points="51.562,15.306 41.17,16.188 42.053,5.794"
         id="polyline4774" /><path
         d="m 39.363241,1033.1291 -0.05636,9.9115 -8.750608,0.067"
         id="path4776"
         style="fill:none;stroke:#ffffff;stroke-width:2.5;stroke-linecap:round;stroke-linejoin:round;stroke-miterlimit:4;stroke-opacity:1;stroke-dasharray:none" /></g></g><path
     d="m 16.630224,1.3207378 0,3.873309 c -1.359995,0.305278 -2.63339,0.84142 -3.775735,1.565584 l -2.739408,-2.73941 -3.7284296,3.726958 2.740884,2.7408812 c -0.724038,1.14202 -1.260192,2.414677 -1.565586,3.774256 l -3.873308,0 0,5.27184 3.873308,0 c 0.30534,1.360118 0.841298,2.633318 1.565586,3.775743 l -2.740884,2.74088 3.7284296,3.72695 2.739408,-2.7394 c 1.142309,0.724108 2.415798,1.260315 3.775735,1.565585 l 0,3.871826 5.27184,0 0,-3.871826 c 1.360201,-0.305335 2.631778,-0.842736 3.77426,-1.567065 l 2.740882,2.74088 3.726953,-3.72695 -2.740885,-2.74088 c 0.724376,-1.142517 1.261721,-2.415486 1.567063,-3.775743 l 3.873311,0 0,-5.27184 -3.874788,0 C 30.663453,12.90271 30.127345,11.630098 29.403274,10.48806 l 2.740885,-2.7408812 -3.726953,-3.726958 -2.740882,2.740888 c -1.142519,-0.724374 -2.414003,-1.261719 -3.77426,-1.567062 l 0,-3.873309 -5.27184,0 z m 2.635919,8.447358 c 3.935723,0 7.130144,3.1944172 7.130144,7.1301392 -2e-6,3.935721 -3.194421,7.130142 -7.130144,7.130142 -3.935719,0 -7.130141,-3.194421 -7.130141,-7.130142 0,-3.935722 3.194422,-7.1301392 7.130141,-7.1301392 z"
     id="rect2811"
     style="fill:#000000;fill-opacity:0;stroke:#ffffff;stroke-width:2.29699993;stroke-linejoin:round;stroke-miterlimit:4;stroke-opacity:1;stroke-dasharray:none;stroke-dashoffset:0" /></svg>